<svg width="302" height="81" viewBox="0 0 302 81" fill="none" xmlns="http://www.w3.org/2000/svg">
<path d="M0 4.60482C0 2.84315 1.42811 1.41504 3.18978 1.41504H10.4878C11.5429 1.41504 12.5298 1.93685 13.1239 2.80888L29.1252 26.2961C29.867 27.385 29.863 28.818 29.1151 29.9027L13.1252 53.0927C12.5299 53.9562 11.548 54.4718 10.4992 54.4718H3.18978C1.42811 54.4718 0 53.0437 0 51.282V4.60482Z" fill="url(#paint0_angular_76_2)"/>
<path d="M63.3172 77.8102C63.3172 79.5719 61.8891 81 60.1274 81H52.8294C51.7743 81 50.7874 80.4782 50.1933 79.6062L34.192 56.1189C33.4502 55.03 33.4542 53.597 34.2021 52.5123L50.192 29.3224C50.7873 28.4589 51.7692 27.9433 52.818 27.9433H60.1274C61.8891 27.9433 63.3172 29.3714 63.3172 31.1331V77.8102Z" fill="url(#paint1_angular_76_2)"/>
<path d="M79.7584 14.1721V32H75.8816V14.1721H79.7584ZM84.2682 14.1721H87.8055L93.9462 23.5671C94.3613 24.2086 94.7386 24.8406 95.0782 25.4631C95.4366 26.0668 95.6913 26.5384 95.8422 26.878H95.8988C95.7856 25.6518 95.729 24.435 95.729 23.2276C95.729 22.0013 95.729 20.7656 95.729 19.5205V14.1721H99.3229V32H95.7856L90.0694 23.3408C89.8241 22.9634 89.5789 22.5767 89.3336 22.1805C89.1072 21.7655 88.8903 21.3693 88.6828 20.992C88.4752 20.6147 88.2866 20.2751 88.1168 19.9733C87.9659 19.6526 87.8527 19.3884 87.7772 19.1809H87.7206C87.815 20.4826 87.8621 21.7372 87.8621 22.9446C87.881 24.1331 87.8904 25.3499 87.8904 26.595V32H84.2682V14.1721ZM115.96 14.1721V17.2283H110.923V32H107.046V17.2283H102.122V14.1721H115.96ZM118.728 14.1721H130.33V17.1717H122.605V21.2467H129.594V24.218H122.605V29.0004H130.415V32H118.728V14.1721ZM133.913 14.1721H140.676C141.676 14.1721 142.553 14.3231 143.308 14.6249C144.081 14.9079 144.723 15.3041 145.232 15.8134C145.741 16.3039 146.119 16.8888 146.364 17.5679C146.628 18.2282 146.76 18.9451 146.76 19.7186C146.76 20.4355 146.647 21.0769 146.421 21.6429C146.213 22.19 145.94 22.671 145.6 23.0861C145.279 23.4822 144.911 23.8218 144.496 24.1048C144.1 24.3689 143.713 24.5859 143.336 24.7557L147.694 32H143.251L139.827 25.4348H137.761V32H133.913V14.1721ZM137.761 22.4635H139.289C140.308 22.4635 141.138 22.256 141.78 21.841C142.44 21.4259 142.77 20.7373 142.77 19.7752C142.77 18.9262 142.506 18.2754 141.978 17.8226C141.468 17.351 140.714 17.1152 139.714 17.1152H137.761V22.4635Z" fill="white"/>
<path d="M86.451 41.067H93.3274L102.963 67.8088H96.1289L94.3037 62.0785H85.3049L83.4797 67.8088H76.7305L86.451 41.067ZM86.7056 57.4093H92.8181L91.7993 54.1833C91.4597 53.1362 91.106 52.0184 90.7381 50.8299C90.3986 49.6414 90.1014 48.5519 89.8467 47.5615H89.7618C89.4789 48.5519 89.1534 49.6272 88.7856 50.7875C88.4177 51.9477 88.064 53.0796 87.7244 54.1833L86.7056 57.4093ZM123.669 63.3519C124.943 63.3519 126.018 63.2387 126.895 63.0123C127.773 62.7859 128.508 62.4888 129.103 62.1209L130.376 66.7477C129.81 67.0872 128.89 67.4268 127.617 67.7664C126.372 68.106 124.829 68.2758 122.99 68.2758C120.896 68.2758 118.972 67.9503 117.217 67.2995C115.463 66.6486 113.963 65.7289 112.718 64.5404C111.473 63.3236 110.496 61.8662 109.789 60.1683C109.11 58.4421 108.77 56.5179 108.77 54.3955C108.77 52.3297 109.096 50.4479 109.747 48.75C110.426 47.0238 111.374 45.5665 112.591 44.3779C113.836 43.1611 115.335 42.2273 117.09 41.5764C118.873 40.8973 120.868 40.5577 123.075 40.5577C124.943 40.5577 126.457 40.7416 127.617 41.1095C128.805 41.4491 129.739 41.8028 130.418 42.1707L128.975 46.8823C128.324 46.5144 127.546 46.189 126.641 45.906C125.763 45.6231 124.787 45.4816 123.712 45.4816C122.58 45.4816 121.519 45.6514 120.528 45.9909C119.538 46.3022 118.675 46.8116 117.939 47.519C117.203 48.2265 116.623 49.1462 116.199 50.2781C115.774 51.3817 115.562 52.7401 115.562 54.353C115.562 55.8529 115.76 57.1687 116.156 58.3006C116.581 59.4326 117.161 60.3806 117.896 61.1446C118.632 61.8804 119.481 62.4322 120.443 62.8001C121.434 63.1679 122.509 63.3519 123.669 63.3519ZM183.937 41.067V46.0758H176.637V67.8088H170.185V46.0758H163.053V41.067H183.937ZM197.807 41.067V67.8088H191.355V41.067H197.807ZM212.077 41.067L215.6 52.2307C216.024 53.589 216.477 55.1171 216.958 56.815C217.439 58.4846 217.864 60.1683 218.232 61.8662H218.359C218.727 60.1683 219.137 58.4846 219.59 56.815C220.071 55.1454 220.538 53.6031 220.991 52.1882L224.471 41.067H231.093L221.882 67.8088H214.708L205.243 41.067H212.077ZM238.395 41.067H256.223V45.9909H244.847V51.4666H255.119V56.3481H244.847V62.885H256.35V67.8088H238.395V41.067Z" fill="white"/>
<path d="M152.28 40.6785H160.415L149.804 54.297L161.123 67.3849H153.341L144.851 57.4805V50.406L152.28 40.6785Z" fill="url(#paint2_angular_76_2)"/>
<path d="M291.118 67.385H282.982L293.594 53.7665L282.274 40.6786H290.056L298.546 50.583L301.553 53.9434L298.546 57.6575L291.118 67.385Z" fill="url(#paint3_angular_76_2)"/>
<path d="M268.833 67.385H260.697L271.84 40.6786H279.091L268.833 67.385Z" fill="url(#paint4_angular_76_2)"/>
<path d="M143.26 40.6785H136.893V67.3849H143.26V40.6785Z" fill="white"/>
<defs>
<radialGradient id="paint0_angular_76_2" cx="0" cy="0" r="1" gradientUnits="userSpaceOnUse" gradientTransform="translate(21.2386 41.4468) rotate(145.876) scale(29.1881 16.6998)">
<stop offset="0.0581482" stop-color="#FC2E21"/>
<stop offset="0.389748" stop-color="#FC7D21"/>
<stop offset="0.498855" stop-color="#FC7D21"/>
<stop offset="0.581529" stop-color="#FC7D21"/>
<stop offset="0.947917" stop-color="#FC2121"/>
</radialGradient>
<radialGradient id="paint1_angular_76_2" cx="0" cy="0" r="1" gradientUnits="userSpaceOnUse" gradientTransform="translate(42.0786 40.9682) rotate(-34.1242) scale(29.1881 16.6998)">
<stop offset="0.0581482" stop-color="#FC2E21"/>
<stop offset="0.389748" stop-color="#FC7D21"/>
<stop offset="0.498855" stop-color="#FC7D21"/>
<stop offset="0.581529" stop-color="#FC7D21"/>
<stop offset="0.947917" stop-color="#FC2121"/>
</radialGradient>
<radialGradient id="paint2_angular_76_2" cx="0" cy="0" r="1" gradientUnits="userSpaceOnUse" gradientTransform="translate(156.236 60.8287) rotate(147.528) scale(15.3517 8.56674)">
<stop offset="0.0581482" stop-color="#FC2E21"/>
<stop offset="0.389748" stop-color="#FC7D21"/>
<stop offset="0.498855" stop-color="#FC7D21"/>
<stop offset="0.581529" stop-color="#FC7D21"/>
<stop offset="0.947917" stop-color="#FC2121"/>
</radialGradient>
<radialGradient id="paint3_angular_76_2" cx="0" cy="0" r="1" gradientUnits="userSpaceOnUse" gradientTransform="translate(288.065 47.2348) rotate(-28.2412) scale(17.4183 8.94555)">
<stop offset="0.0581482" stop-color="#FC2E21"/>
<stop offset="0.389748" stop-color="#FC7D21"/>
<stop offset="0.498855" stop-color="#FC7D21"/>
<stop offset="0.581529" stop-color="#FC7D21"/>
<stop offset="0.947917" stop-color="#FC2121"/>
</radialGradient>
<radialGradient id="paint4_angular_76_2" cx="0" cy="0" r="1" gradientUnits="userSpaceOnUse" gradientTransform="translate(266.222 47.2348) rotate(-29.3771) scale(16.8015 8.84854)">
<stop offset="0.0581482" stop-color="#FC2E21"/>
<stop offset="0.389748" stop-color="#FC7D21"/>
<stop offset="0.498855" stop-color="#FC7D21"/>
<stop offset="0.581529" stop-color="#FC7D21"/>
<stop offset="0.947917" stop-color="#FC2121"/>
</radialGradient>
</defs>
</svg>
